<mxfile host="65bd71144e">
    <diagram id="5PETfb4ItzDlBU-etrcw" name="Use case diagram">
        <mxGraphModel dx="360" dy="1173" grid="0" gridSize="10" guides="1" tooltips="1" connect="1" arrows="1" fold="1" page="0" pageScale="1" pageWidth="827" pageHeight="1169" math="0" shadow="0">
            <root>
                <mxCell id="0"/>
                <mxCell id="1" parent="0"/>
                <mxCell id="15" style="edgeStyle=none;html=1;" parent="1" source="2" target="10" edge="1">
                    <mxGeometry relative="1" as="geometry"/>
                </mxCell>
                <mxCell id="16" style="edgeStyle=none;html=1;entryX=0;entryY=1;entryDx=0;entryDy=0;" parent="1" source="2" target="5" edge="1">
                    <mxGeometry relative="1" as="geometry"/>
                </mxCell>
                <mxCell id="17" style="edgeStyle=none;html=1;entryX=0;entryY=0.5;entryDx=0;entryDy=0;" parent="1" source="2" target="6" edge="1">
                    <mxGeometry relative="1" as="geometry"/>
                </mxCell>
                <mxCell id="18" style="edgeStyle=none;html=1;entryX=0;entryY=0.5;entryDx=0;entryDy=0;" parent="1" source="2" target="7" edge="1">
                    <mxGeometry relative="1" as="geometry"/>
                </mxCell>
                <mxCell id="2" value="Anonymous visitor" style="shape=umlActor;verticalLabelPosition=bottom;verticalAlign=top;html=1;outlineConnect=0;" parent="1" vertex="1">
                    <mxGeometry x="115" y="-123" width="30" height="60" as="geometry"/>
                </mxCell>
                <mxCell id="5" value="Change Password" style="ellipse;whiteSpace=wrap;html=1;" parent="1" vertex="1">
                    <mxGeometry x="207" y="-240" width="110" height="59" as="geometry"/>
                </mxCell>
                <mxCell id="6" value="Authentication" style="ellipse;whiteSpace=wrap;html=1;" parent="1" vertex="1">
                    <mxGeometry x="259" y="-37" width="110" height="59" as="geometry"/>
                </mxCell>
                <mxCell id="7" value="Authorization" style="ellipse;whiteSpace=wrap;html=1;" parent="1" vertex="1">
                    <mxGeometry x="197" y="68" width="110" height="59" as="geometry"/>
                </mxCell>
                <mxCell id="19" style="edgeStyle=none;html=1;entryX=1;entryY=0.5;entryDx=0;entryDy=0;" parent="1" source="8" target="11" edge="1">
                    <mxGeometry relative="1" as="geometry"/>
                </mxCell>
                <mxCell id="20" style="edgeStyle=none;html=1;entryX=1;entryY=0.5;entryDx=0;entryDy=0;" parent="1" source="8" target="12" edge="1">
                    <mxGeometry relative="1" as="geometry"/>
                </mxCell>
                <mxCell id="21" style="edgeStyle=none;html=1;entryX=1;entryY=0.5;entryDx=0;entryDy=0;" parent="1" source="8" target="14" edge="1">
                    <mxGeometry relative="1" as="geometry"/>
                </mxCell>
                <mxCell id="8" value="User" style="shape=umlActor;verticalLabelPosition=bottom;verticalAlign=top;html=1;outlineConnect=0;" parent="1" vertex="1">
                    <mxGeometry x="735" y="68" width="30" height="60" as="geometry"/>
                </mxCell>
                <mxCell id="10" value="Register himself" style="ellipse;whiteSpace=wrap;html=1;" parent="1" vertex="1">
                    <mxGeometry x="269" y="-130" width="110" height="59" as="geometry"/>
                </mxCell>
                <mxCell id="22" style="edgeStyle=none;html=1;exitX=0.5;exitY=0;exitDx=0;exitDy=0;entryX=0.5;entryY=1;entryDx=0;entryDy=0;endArrow=none;endFill=0;" parent="1" source="11" target="13" edge="1">
                    <mxGeometry relative="1" as="geometry"/>
                </mxCell>
                <mxCell id="23" value="&amp;lt;&amp;lt; extends &amp;gt;&amp;gt;" style="edgeLabel;html=1;align=center;verticalAlign=middle;resizable=0;points=[];" parent="22" vertex="1" connectable="0">
                    <mxGeometry x="0.3265" y="2" relative="1" as="geometry">
                        <mxPoint x="14" y="7" as="offset"/>
                    </mxGeometry>
                </mxCell>
                <mxCell id="11" value="Manage Tasks" style="ellipse;whiteSpace=wrap;html=1;" parent="1" vertex="1">
                    <mxGeometry x="538" y="8" width="110" height="59" as="geometry"/>
                </mxCell>
                <mxCell id="12" value="Update Personal Data" style="ellipse;whiteSpace=wrap;html=1;" parent="1" vertex="1">
                    <mxGeometry x="428" y="89" width="110" height="59" as="geometry"/>
                </mxCell>
                <mxCell id="13" value="Notify task deadline" style="ellipse;whiteSpace=wrap;html=1;" parent="1" vertex="1">
                    <mxGeometry x="476" y="-107" width="110" height="59" as="geometry"/>
                </mxCell>
                <mxCell id="14" value="Share Tasks" style="ellipse;whiteSpace=wrap;html=1;" parent="1" vertex="1">
                    <mxGeometry x="518" y="187" width="110" height="59" as="geometry"/>
                </mxCell>
            </root>
        </mxGraphModel>
    </diagram>
    <diagram id="wFUJRE31mGaoeah36m6h" name="Database diagram">
        <mxGraphModel dx="1253" dy="909" grid="0" gridSize="10" guides="1" tooltips="1" connect="1" arrows="1" fold="1" page="0" pageScale="1" pageWidth="827" pageHeight="1169" math="0" shadow="0">
            <root>
                <mxCell id="0"/>
                <mxCell id="1" parent="0"/>
                <mxCell id="_7Gn3gMYDVEktJhP9fau-1" value="Users" style="shape=table;startSize=30;container=1;collapsible=1;childLayout=tableLayout;fixedRows=1;rowLines=0;fontStyle=1;align=center;resizeLast=1;" parent="1" vertex="1">
                    <mxGeometry x="70" y="250" width="210" height="220" as="geometry"/>
                </mxCell>
                <mxCell id="_7Gn3gMYDVEktJhP9fau-2" value="" style="shape=tableRow;horizontal=0;startSize=0;swimlaneHead=0;swimlaneBody=0;fillColor=none;collapsible=0;dropTarget=0;points=[[0,0.5],[1,0.5]];portConstraint=eastwest;top=0;left=0;right=0;bottom=1;" parent="_7Gn3gMYDVEktJhP9fau-1" vertex="1">
                    <mxGeometry y="30" width="210" height="30" as="geometry"/>
                </mxCell>
                <mxCell id="_7Gn3gMYDVEktJhP9fau-3" value="PK" style="shape=partialRectangle;connectable=0;fillColor=none;top=0;left=0;bottom=0;right=0;fontStyle=1;overflow=hidden;" parent="_7Gn3gMYDVEktJhP9fau-2" vertex="1">
                    <mxGeometry width="30" height="30" as="geometry">
                        <mxRectangle width="30" height="30" as="alternateBounds"/>
                    </mxGeometry>
                </mxCell>
                <mxCell id="_7Gn3gMYDVEktJhP9fau-4" value="id VARCHAR(40) UNIQUE" style="shape=partialRectangle;connectable=0;fillColor=none;top=0;left=0;bottom=0;right=0;align=left;spacingLeft=6;fontStyle=5;overflow=hidden;" parent="_7Gn3gMYDVEktJhP9fau-2" vertex="1">
                    <mxGeometry x="30" width="180" height="30" as="geometry">
                        <mxRectangle width="180" height="30" as="alternateBounds"/>
                    </mxGeometry>
                </mxCell>
                <mxCell id="_7Gn3gMYDVEktJhP9fau-5" value="" style="shape=tableRow;horizontal=0;startSize=0;swimlaneHead=0;swimlaneBody=0;fillColor=none;collapsible=0;dropTarget=0;points=[[0,0.5],[1,0.5]];portConstraint=eastwest;top=0;left=0;right=0;bottom=0;" parent="_7Gn3gMYDVEktJhP9fau-1" vertex="1">
                    <mxGeometry y="60" width="210" height="30" as="geometry"/>
                </mxCell>
                <mxCell id="_7Gn3gMYDVEktJhP9fau-6" value="" style="shape=partialRectangle;connectable=0;fillColor=none;top=0;left=0;bottom=0;right=0;editable=1;overflow=hidden;" parent="_7Gn3gMYDVEktJhP9fau-5" vertex="1">
                    <mxGeometry width="30" height="30" as="geometry">
                        <mxRectangle width="30" height="30" as="alternateBounds"/>
                    </mxGeometry>
                </mxCell>
                <mxCell id="_7Gn3gMYDVEktJhP9fau-7" value="email VARCHAR(90)" style="shape=partialRectangle;connectable=0;fillColor=none;top=0;left=0;bottom=0;right=0;align=left;spacingLeft=6;overflow=hidden;" parent="_7Gn3gMYDVEktJhP9fau-5" vertex="1">
                    <mxGeometry x="30" width="180" height="30" as="geometry">
                        <mxRectangle width="180" height="30" as="alternateBounds"/>
                    </mxGeometry>
                </mxCell>
                <mxCell id="_7Gn3gMYDVEktJhP9fau-8" value="" style="shape=tableRow;horizontal=0;startSize=0;swimlaneHead=0;swimlaneBody=0;fillColor=none;collapsible=0;dropTarget=0;points=[[0,0.5],[1,0.5]];portConstraint=eastwest;top=0;left=0;right=0;bottom=0;" parent="_7Gn3gMYDVEktJhP9fau-1" vertex="1">
                    <mxGeometry y="90" width="210" height="30" as="geometry"/>
                </mxCell>
                <mxCell id="_7Gn3gMYDVEktJhP9fau-9" value="" style="shape=partialRectangle;connectable=0;fillColor=none;top=0;left=0;bottom=0;right=0;editable=1;overflow=hidden;" parent="_7Gn3gMYDVEktJhP9fau-8" vertex="1">
                    <mxGeometry width="30" height="30" as="geometry">
                        <mxRectangle width="30" height="30" as="alternateBounds"/>
                    </mxGeometry>
                </mxCell>
                <mxCell id="_7Gn3gMYDVEktJhP9fau-10" value="name VARCHAR (30)" style="shape=partialRectangle;connectable=0;fillColor=none;top=0;left=0;bottom=0;right=0;align=left;spacingLeft=6;overflow=hidden;" parent="_7Gn3gMYDVEktJhP9fau-8" vertex="1">
                    <mxGeometry x="30" width="180" height="30" as="geometry">
                        <mxRectangle width="180" height="30" as="alternateBounds"/>
                    </mxGeometry>
                </mxCell>
                <mxCell id="_7Gn3gMYDVEktJhP9fau-11" value="" style="shape=tableRow;horizontal=0;startSize=0;swimlaneHead=0;swimlaneBody=0;fillColor=none;collapsible=0;dropTarget=0;points=[[0,0.5],[1,0.5]];portConstraint=eastwest;top=0;left=0;right=0;bottom=0;" parent="_7Gn3gMYDVEktJhP9fau-1" vertex="1">
                    <mxGeometry y="120" width="210" height="30" as="geometry"/>
                </mxCell>
                <mxCell id="_7Gn3gMYDVEktJhP9fau-12" value="" style="shape=partialRectangle;connectable=0;fillColor=none;top=0;left=0;bottom=0;right=0;editable=1;overflow=hidden;" parent="_7Gn3gMYDVEktJhP9fau-11" vertex="1">
                    <mxGeometry width="30" height="30" as="geometry">
                        <mxRectangle width="30" height="30" as="alternateBounds"/>
                    </mxGeometry>
                </mxCell>
                <mxCell id="_7Gn3gMYDVEktJhP9fau-13" value="fullname VARCHAR(300)" style="shape=partialRectangle;connectable=0;fillColor=none;top=0;left=0;bottom=0;right=0;align=left;spacingLeft=6;overflow=hidden;" parent="_7Gn3gMYDVEktJhP9fau-11" vertex="1">
                    <mxGeometry x="30" width="180" height="30" as="geometry">
                        <mxRectangle width="180" height="30" as="alternateBounds"/>
                    </mxGeometry>
                </mxCell>
                <mxCell id="_7Gn3gMYDVEktJhP9fau-14" value="" style="shape=tableRow;horizontal=0;startSize=0;swimlaneHead=0;swimlaneBody=0;fillColor=none;collapsible=0;dropTarget=0;points=[[0,0.5],[1,0.5]];portConstraint=eastwest;top=0;left=0;right=0;bottom=0;" parent="_7Gn3gMYDVEktJhP9fau-1" vertex="1">
                    <mxGeometry y="150" width="210" height="30" as="geometry"/>
                </mxCell>
                <mxCell id="_7Gn3gMYDVEktJhP9fau-15" value="" style="shape=partialRectangle;connectable=0;fillColor=none;top=0;left=0;bottom=0;right=0;editable=1;overflow=hidden;" parent="_7Gn3gMYDVEktJhP9fau-14" vertex="1">
                    <mxGeometry width="30" height="30" as="geometry">
                        <mxRectangle width="30" height="30" as="alternateBounds"/>
                    </mxGeometry>
                </mxCell>
                <mxCell id="_7Gn3gMYDVEktJhP9fau-16" value="password VARCHAR(10)" style="shape=partialRectangle;connectable=0;fillColor=none;top=0;left=0;bottom=0;right=0;align=left;spacingLeft=6;overflow=hidden;" parent="_7Gn3gMYDVEktJhP9fau-14" vertex="1">
                    <mxGeometry x="30" width="180" height="30" as="geometry">
                        <mxRectangle width="180" height="30" as="alternateBounds"/>
                    </mxGeometry>
                </mxCell>
                <mxCell id="_7Gn3gMYDVEktJhP9fau-17" value="" style="shape=tableRow;horizontal=0;startSize=0;swimlaneHead=0;swimlaneBody=0;fillColor=none;collapsible=0;dropTarget=0;points=[[0,0.5],[1,0.5]];portConstraint=eastwest;top=0;left=0;right=0;bottom=0;" parent="_7Gn3gMYDVEktJhP9fau-1" vertex="1">
                    <mxGeometry y="180" width="210" height="30" as="geometry"/>
                </mxCell>
                <mxCell id="_7Gn3gMYDVEktJhP9fau-18" value="" style="shape=partialRectangle;connectable=0;fillColor=none;top=0;left=0;bottom=0;right=0;editable=1;overflow=hidden;" parent="_7Gn3gMYDVEktJhP9fau-17" vertex="1">
                    <mxGeometry width="30" height="30" as="geometry">
                        <mxRectangle width="30" height="30" as="alternateBounds"/>
                    </mxGeometry>
                </mxCell>
                <mxCell id="_7Gn3gMYDVEktJhP9fau-19" value="picture_path VARCHAR(200)" style="shape=partialRectangle;connectable=0;fillColor=none;top=0;left=0;bottom=0;right=0;align=left;spacingLeft=6;overflow=hidden;" parent="_7Gn3gMYDVEktJhP9fau-17" vertex="1">
                    <mxGeometry x="30" width="180" height="30" as="geometry">
                        <mxRectangle width="180" height="30" as="alternateBounds"/>
                    </mxGeometry>
                </mxCell>
                <mxCell id="_7Gn3gMYDVEktJhP9fau-64" style="edgeStyle=orthogonalEdgeStyle;html=1;entryX=1;entryY=0.5;entryDx=0;entryDy=0;endArrow=ERmany;endFill=0;" parent="1" source="_7Gn3gMYDVEktJhP9fau-20" target="_7Gn3gMYDVEktJhP9fau-50" edge="1">
                    <mxGeometry relative="1" as="geometry"/>
                </mxCell>
                <mxCell id="_7Gn3gMYDVEktJhP9fau-67" value="1" style="edgeLabel;html=1;align=center;verticalAlign=middle;resizable=0;points=[];" parent="_7Gn3gMYDVEktJhP9fau-64" vertex="1" connectable="0">
                    <mxGeometry x="-0.8259" y="2" relative="1" as="geometry">
                        <mxPoint x="-2" as="offset"/>
                    </mxGeometry>
                </mxCell>
                <mxCell id="_7Gn3gMYDVEktJhP9fau-68" value="0 ... *" style="edgeLabel;html=1;align=center;verticalAlign=middle;resizable=0;points=[];" parent="_7Gn3gMYDVEktJhP9fau-64" vertex="1" connectable="0">
                    <mxGeometry x="0.8153" y="-2" relative="1" as="geometry">
                        <mxPoint x="15" as="offset"/>
                    </mxGeometry>
                </mxCell>
                <mxCell id="_7Gn3gMYDVEktJhP9fau-20" value="Tasks" style="shape=table;startSize=30;container=1;collapsible=1;childLayout=tableLayout;fixedRows=1;rowLines=0;fontStyle=1;align=center;resizeLast=1;" parent="1" vertex="1">
                    <mxGeometry x="561" y="250" width="221" height="210" as="geometry"/>
                </mxCell>
                <mxCell id="_7Gn3gMYDVEktJhP9fau-21" value="" style="shape=tableRow;horizontal=0;startSize=0;swimlaneHead=0;swimlaneBody=0;fillColor=none;collapsible=0;dropTarget=0;points=[[0,0.5],[1,0.5]];portConstraint=eastwest;top=0;left=0;right=0;bottom=1;" parent="_7Gn3gMYDVEktJhP9fau-20" vertex="1">
                    <mxGeometry y="30" width="221" height="30" as="geometry"/>
                </mxCell>
                <mxCell id="_7Gn3gMYDVEktJhP9fau-22" value="PK" style="shape=partialRectangle;connectable=0;fillColor=none;top=0;left=0;bottom=0;right=0;fontStyle=1;overflow=hidden;" parent="_7Gn3gMYDVEktJhP9fau-21" vertex="1">
                    <mxGeometry width="30" height="30" as="geometry">
                        <mxRectangle width="30" height="30" as="alternateBounds"/>
                    </mxGeometry>
                </mxCell>
                <mxCell id="_7Gn3gMYDVEktJhP9fau-23" value="id VARCHAR(40) UNIQUE" style="shape=partialRectangle;connectable=0;fillColor=none;top=0;left=0;bottom=0;right=0;align=left;spacingLeft=6;fontStyle=5;overflow=hidden;" parent="_7Gn3gMYDVEktJhP9fau-21" vertex="1">
                    <mxGeometry x="30" width="191" height="30" as="geometry">
                        <mxRectangle width="191" height="30" as="alternateBounds"/>
                    </mxGeometry>
                </mxCell>
                <mxCell id="_7Gn3gMYDVEktJhP9fau-24" value="" style="shape=tableRow;horizontal=0;startSize=0;swimlaneHead=0;swimlaneBody=0;fillColor=none;collapsible=0;dropTarget=0;points=[[0,0.5],[1,0.5]];portConstraint=eastwest;top=0;left=0;right=0;bottom=0;" parent="_7Gn3gMYDVEktJhP9fau-20" vertex="1">
                    <mxGeometry y="60" width="221" height="30" as="geometry"/>
                </mxCell>
                <mxCell id="_7Gn3gMYDVEktJhP9fau-25" value="FK" style="shape=partialRectangle;connectable=0;fillColor=none;top=0;left=0;bottom=0;right=0;editable=1;overflow=hidden;" parent="_7Gn3gMYDVEktJhP9fau-24" vertex="1">
                    <mxGeometry width="30" height="30" as="geometry">
                        <mxRectangle width="30" height="30" as="alternateBounds"/>
                    </mxGeometry>
                </mxCell>
                <mxCell id="_7Gn3gMYDVEktJhP9fau-26" value="user_id VARCHAR (40)" style="shape=partialRectangle;connectable=0;fillColor=none;top=0;left=0;bottom=0;right=0;align=left;spacingLeft=6;overflow=hidden;" parent="_7Gn3gMYDVEktJhP9fau-24" vertex="1">
                    <mxGeometry x="30" width="191" height="30" as="geometry">
                        <mxRectangle width="191" height="30" as="alternateBounds"/>
                    </mxGeometry>
                </mxCell>
                <mxCell id="_7Gn3gMYDVEktJhP9fau-27" value="" style="shape=tableRow;horizontal=0;startSize=0;swimlaneHead=0;swimlaneBody=0;fillColor=none;collapsible=0;dropTarget=0;points=[[0,0.5],[1,0.5]];portConstraint=eastwest;top=0;left=0;right=0;bottom=0;" parent="_7Gn3gMYDVEktJhP9fau-20" vertex="1">
                    <mxGeometry y="90" width="221" height="30" as="geometry"/>
                </mxCell>
                <mxCell id="_7Gn3gMYDVEktJhP9fau-28" value="" style="shape=partialRectangle;connectable=0;fillColor=none;top=0;left=0;bottom=0;right=0;editable=1;overflow=hidden;" parent="_7Gn3gMYDVEktJhP9fau-27" vertex="1">
                    <mxGeometry width="30" height="30" as="geometry">
                        <mxRectangle width="30" height="30" as="alternateBounds"/>
                    </mxGeometry>
                </mxCell>
                <mxCell id="_7Gn3gMYDVEktJhP9fau-29" value="is_deleted BOOLEAN" style="shape=partialRectangle;connectable=0;fillColor=none;top=0;left=0;bottom=0;right=0;align=left;spacingLeft=6;overflow=hidden;" parent="_7Gn3gMYDVEktJhP9fau-27" vertex="1">
                    <mxGeometry x="30" width="191" height="30" as="geometry">
                        <mxRectangle width="191" height="30" as="alternateBounds"/>
                    </mxGeometry>
                </mxCell>
                <mxCell id="_7Gn3gMYDVEktJhP9fau-30" value="" style="shape=tableRow;horizontal=0;startSize=0;swimlaneHead=0;swimlaneBody=0;fillColor=none;collapsible=0;dropTarget=0;points=[[0,0.5],[1,0.5]];portConstraint=eastwest;top=0;left=0;right=0;bottom=0;" parent="_7Gn3gMYDVEktJhP9fau-20" vertex="1">
                    <mxGeometry y="120" width="221" height="30" as="geometry"/>
                </mxCell>
                <mxCell id="_7Gn3gMYDVEktJhP9fau-31" value="" style="shape=partialRectangle;connectable=0;fillColor=none;top=0;left=0;bottom=0;right=0;editable=1;overflow=hidden;" parent="_7Gn3gMYDVEktJhP9fau-30" vertex="1">
                    <mxGeometry width="30" height="30" as="geometry">
                        <mxRectangle width="30" height="30" as="alternateBounds"/>
                    </mxGeometry>
                </mxCell>
                <mxCell id="_7Gn3gMYDVEktJhP9fau-32" value="deadline VARCHAR (70)" style="shape=partialRectangle;connectable=0;fillColor=none;top=0;left=0;bottom=0;right=0;align=left;spacingLeft=6;overflow=hidden;" parent="_7Gn3gMYDVEktJhP9fau-30" vertex="1">
                    <mxGeometry x="30" width="191" height="30" as="geometry">
                        <mxRectangle width="191" height="30" as="alternateBounds"/>
                    </mxGeometry>
                </mxCell>
                <mxCell id="_7Gn3gMYDVEktJhP9fau-33" value="" style="shape=tableRow;horizontal=0;startSize=0;swimlaneHead=0;swimlaneBody=0;fillColor=none;collapsible=0;dropTarget=0;points=[[0,0.5],[1,0.5]];portConstraint=eastwest;top=0;left=0;right=0;bottom=0;" parent="_7Gn3gMYDVEktJhP9fau-20" vertex="1">
                    <mxGeometry y="150" width="221" height="30" as="geometry"/>
                </mxCell>
                <mxCell id="_7Gn3gMYDVEktJhP9fau-34" value="" style="shape=partialRectangle;connectable=0;fillColor=none;top=0;left=0;bottom=0;right=0;editable=1;overflow=hidden;" parent="_7Gn3gMYDVEktJhP9fau-33" vertex="1">
                    <mxGeometry width="30" height="30" as="geometry">
                        <mxRectangle width="30" height="30" as="alternateBounds"/>
                    </mxGeometry>
                </mxCell>
                <mxCell id="_7Gn3gMYDVEktJhP9fau-35" value="status VARCHAR (70)" style="shape=partialRectangle;connectable=0;fillColor=none;top=0;left=0;bottom=0;right=0;align=left;spacingLeft=6;overflow=hidden;" parent="_7Gn3gMYDVEktJhP9fau-33" vertex="1">
                    <mxGeometry x="30" width="191" height="30" as="geometry">
                        <mxRectangle width="191" height="30" as="alternateBounds"/>
                    </mxGeometry>
                </mxCell>
                <mxCell id="_7Gn3gMYDVEktJhP9fau-36" value="" style="shape=tableRow;horizontal=0;startSize=0;swimlaneHead=0;swimlaneBody=0;fillColor=none;collapsible=0;dropTarget=0;points=[[0,0.5],[1,0.5]];portConstraint=eastwest;top=0;left=0;right=0;bottom=0;" parent="_7Gn3gMYDVEktJhP9fau-20" vertex="1">
                    <mxGeometry y="180" width="221" height="30" as="geometry"/>
                </mxCell>
                <mxCell id="_7Gn3gMYDVEktJhP9fau-37" value="" style="shape=partialRectangle;connectable=0;fillColor=none;top=0;left=0;bottom=0;right=0;editable=1;overflow=hidden;" parent="_7Gn3gMYDVEktJhP9fau-36" vertex="1">
                    <mxGeometry width="30" height="30" as="geometry">
                        <mxRectangle width="30" height="30" as="alternateBounds"/>
                    </mxGeometry>
                </mxCell>
                <mxCell id="_7Gn3gMYDVEktJhP9fau-38" value="" style="shape=partialRectangle;connectable=0;fillColor=none;top=0;left=0;bottom=0;right=0;align=left;spacingLeft=6;overflow=hidden;" parent="_7Gn3gMYDVEktJhP9fau-36" vertex="1">
                    <mxGeometry x="30" width="191" height="30" as="geometry">
                        <mxRectangle width="191" height="30" as="alternateBounds"/>
                    </mxGeometry>
                </mxCell>
                <mxCell id="_7Gn3gMYDVEktJhP9fau-40" style="edgeStyle=none;html=1;entryX=0;entryY=0.5;entryDx=0;entryDy=0;endArrow=ERmany;endFill=0;" parent="1" source="_7Gn3gMYDVEktJhP9fau-8" target="_7Gn3gMYDVEktJhP9fau-27" edge="1">
                    <mxGeometry relative="1" as="geometry"/>
                </mxCell>
                <mxCell id="_7Gn3gMYDVEktJhP9fau-41" value="1" style="edgeLabel;html=1;align=center;verticalAlign=middle;resizable=0;points=[];" parent="_7Gn3gMYDVEktJhP9fau-40" vertex="1" connectable="0">
                    <mxGeometry x="-0.7766" relative="1" as="geometry">
                        <mxPoint as="offset"/>
                    </mxGeometry>
                </mxCell>
                <mxCell id="_7Gn3gMYDVEktJhP9fau-42" value="0...*" style="edgeLabel;html=1;align=center;verticalAlign=middle;resizable=0;points=[];" parent="_7Gn3gMYDVEktJhP9fau-40" vertex="1" connectable="0">
                    <mxGeometry x="0.8166" y="-2" relative="1" as="geometry">
                        <mxPoint as="offset"/>
                    </mxGeometry>
                </mxCell>
                <mxCell id="_7Gn3gMYDVEktJhP9fau-43" value="SharedTasks" style="shape=table;startSize=30;container=1;collapsible=1;childLayout=tableLayout;fixedRows=1;rowLines=0;fontStyle=1;align=center;resizeLast=1;" parent="1" vertex="1">
                    <mxGeometry x="343" y="514" width="234" height="220" as="geometry"/>
                </mxCell>
                <mxCell id="_7Gn3gMYDVEktJhP9fau-44" value="" style="shape=tableRow;horizontal=0;startSize=0;swimlaneHead=0;swimlaneBody=0;fillColor=none;collapsible=0;dropTarget=0;points=[[0,0.5],[1,0.5]];portConstraint=eastwest;top=0;left=0;right=0;bottom=1;" parent="_7Gn3gMYDVEktJhP9fau-43" vertex="1">
                    <mxGeometry y="30" width="234" height="30" as="geometry"/>
                </mxCell>
                <mxCell id="_7Gn3gMYDVEktJhP9fau-45" value="PK" style="shape=partialRectangle;connectable=0;fillColor=none;top=0;left=0;bottom=0;right=0;fontStyle=1;overflow=hidden;" parent="_7Gn3gMYDVEktJhP9fau-44" vertex="1">
                    <mxGeometry width="30" height="30" as="geometry">
                        <mxRectangle width="30" height="30" as="alternateBounds"/>
                    </mxGeometry>
                </mxCell>
                <mxCell id="_7Gn3gMYDVEktJhP9fau-46" value="id VARCHAR(40) UNIQUE" style="shape=partialRectangle;connectable=0;fillColor=none;top=0;left=0;bottom=0;right=0;align=left;spacingLeft=6;fontStyle=5;overflow=hidden;" parent="_7Gn3gMYDVEktJhP9fau-44" vertex="1">
                    <mxGeometry x="30" width="204" height="30" as="geometry">
                        <mxRectangle width="204" height="30" as="alternateBounds"/>
                    </mxGeometry>
                </mxCell>
                <mxCell id="_7Gn3gMYDVEktJhP9fau-47" value="" style="shape=tableRow;horizontal=0;startSize=0;swimlaneHead=0;swimlaneBody=0;fillColor=none;collapsible=0;dropTarget=0;points=[[0,0.5],[1,0.5]];portConstraint=eastwest;top=0;left=0;right=0;bottom=0;" parent="_7Gn3gMYDVEktJhP9fau-43" vertex="1">
                    <mxGeometry y="60" width="234" height="30" as="geometry"/>
                </mxCell>
                <mxCell id="_7Gn3gMYDVEktJhP9fau-48" value="FK" style="shape=partialRectangle;connectable=0;fillColor=none;top=0;left=0;bottom=0;right=0;editable=1;overflow=hidden;" parent="_7Gn3gMYDVEktJhP9fau-47" vertex="1">
                    <mxGeometry width="30" height="30" as="geometry">
                        <mxRectangle width="30" height="30" as="alternateBounds"/>
                    </mxGeometry>
                </mxCell>
                <mxCell id="_7Gn3gMYDVEktJhP9fau-49" value="owner_id REFERENCES User" style="shape=partialRectangle;connectable=0;fillColor=none;top=0;left=0;bottom=0;right=0;align=left;spacingLeft=6;overflow=hidden;" parent="_7Gn3gMYDVEktJhP9fau-47" vertex="1">
                    <mxGeometry x="30" width="204" height="30" as="geometry">
                        <mxRectangle width="204" height="30" as="alternateBounds"/>
                    </mxGeometry>
                </mxCell>
                <mxCell id="_7Gn3gMYDVEktJhP9fau-50" value="" style="shape=tableRow;horizontal=0;startSize=0;swimlaneHead=0;swimlaneBody=0;fillColor=none;collapsible=0;dropTarget=0;points=[[0,0.5],[1,0.5]];portConstraint=eastwest;top=0;left=0;right=0;bottom=0;" parent="_7Gn3gMYDVEktJhP9fau-43" vertex="1">
                    <mxGeometry y="90" width="234" height="30" as="geometry"/>
                </mxCell>
                <mxCell id="_7Gn3gMYDVEktJhP9fau-51" value="FK" style="shape=partialRectangle;connectable=0;fillColor=none;top=0;left=0;bottom=0;right=0;editable=1;overflow=hidden;" parent="_7Gn3gMYDVEktJhP9fau-50" vertex="1">
                    <mxGeometry width="30" height="30" as="geometry">
                        <mxRectangle width="30" height="30" as="alternateBounds"/>
                    </mxGeometry>
                </mxCell>
                <mxCell id="_7Gn3gMYDVEktJhP9fau-52" value="receptor_id REFERENCES User" style="shape=partialRectangle;connectable=0;fillColor=none;top=0;left=0;bottom=0;right=0;align=left;spacingLeft=6;overflow=hidden;" parent="_7Gn3gMYDVEktJhP9fau-50" vertex="1">
                    <mxGeometry x="30" width="204" height="30" as="geometry">
                        <mxRectangle width="204" height="30" as="alternateBounds"/>
                    </mxGeometry>
                </mxCell>
                <mxCell id="_7Gn3gMYDVEktJhP9fau-53" value="" style="shape=tableRow;horizontal=0;startSize=0;swimlaneHead=0;swimlaneBody=0;fillColor=none;collapsible=0;dropTarget=0;points=[[0,0.5],[1,0.5]];portConstraint=eastwest;top=0;left=0;right=0;bottom=0;" parent="_7Gn3gMYDVEktJhP9fau-43" vertex="1">
                    <mxGeometry y="120" width="234" height="34" as="geometry"/>
                </mxCell>
                <mxCell id="_7Gn3gMYDVEktJhP9fau-54" value="FK" style="shape=partialRectangle;connectable=0;fillColor=none;top=0;left=0;bottom=0;right=0;editable=1;overflow=hidden;" parent="_7Gn3gMYDVEktJhP9fau-53" vertex="1">
                    <mxGeometry width="30" height="34" as="geometry">
                        <mxRectangle width="30" height="34" as="alternateBounds"/>
                    </mxGeometry>
                </mxCell>
                <mxCell id="_7Gn3gMYDVEktJhP9fau-55" value="task_id REFERENCES Tasks" style="shape=partialRectangle;connectable=0;fillColor=none;top=0;left=0;bottom=0;right=0;align=left;spacingLeft=6;overflow=hidden;" parent="_7Gn3gMYDVEktJhP9fau-53" vertex="1">
                    <mxGeometry x="30" width="204" height="34" as="geometry">
                        <mxRectangle width="204" height="34" as="alternateBounds"/>
                    </mxGeometry>
                </mxCell>
                <mxCell id="_7Gn3gMYDVEktJhP9fau-56" value="" style="shape=tableRow;horizontal=0;startSize=0;swimlaneHead=0;swimlaneBody=0;fillColor=none;collapsible=0;dropTarget=0;points=[[0,0.5],[1,0.5]];portConstraint=eastwest;top=0;left=0;right=0;bottom=0;" parent="_7Gn3gMYDVEktJhP9fau-43" vertex="1">
                    <mxGeometry y="154" width="234" height="30" as="geometry"/>
                </mxCell>
                <mxCell id="_7Gn3gMYDVEktJhP9fau-57" value="" style="shape=partialRectangle;connectable=0;fillColor=none;top=0;left=0;bottom=0;right=0;editable=1;overflow=hidden;" parent="_7Gn3gMYDVEktJhP9fau-56" vertex="1">
                    <mxGeometry width="30" height="30" as="geometry">
                        <mxRectangle width="30" height="30" as="alternateBounds"/>
                    </mxGeometry>
                </mxCell>
                <mxCell id="_7Gn3gMYDVEktJhP9fau-58" value="" style="shape=partialRectangle;connectable=0;fillColor=none;top=0;left=0;bottom=0;right=0;align=left;spacingLeft=6;overflow=hidden;" parent="_7Gn3gMYDVEktJhP9fau-56" vertex="1">
                    <mxGeometry x="30" width="204" height="30" as="geometry">
                        <mxRectangle width="204" height="30" as="alternateBounds"/>
                    </mxGeometry>
                </mxCell>
                <mxCell id="_7Gn3gMYDVEktJhP9fau-59" value="" style="shape=tableRow;horizontal=0;startSize=0;swimlaneHead=0;swimlaneBody=0;fillColor=none;collapsible=0;dropTarget=0;points=[[0,0.5],[1,0.5]];portConstraint=eastwest;top=0;left=0;right=0;bottom=0;" parent="_7Gn3gMYDVEktJhP9fau-43" vertex="1">
                    <mxGeometry y="184" width="234" height="30" as="geometry"/>
                </mxCell>
                <mxCell id="_7Gn3gMYDVEktJhP9fau-60" value="" style="shape=partialRectangle;connectable=0;fillColor=none;top=0;left=0;bottom=0;right=0;editable=1;overflow=hidden;" parent="_7Gn3gMYDVEktJhP9fau-59" vertex="1">
                    <mxGeometry width="30" height="30" as="geometry">
                        <mxRectangle width="30" height="30" as="alternateBounds"/>
                    </mxGeometry>
                </mxCell>
                <mxCell id="_7Gn3gMYDVEktJhP9fau-61" value="" style="shape=partialRectangle;connectable=0;fillColor=none;top=0;left=0;bottom=0;right=0;align=left;spacingLeft=6;overflow=hidden;" parent="_7Gn3gMYDVEktJhP9fau-59" vertex="1">
                    <mxGeometry x="30" width="204" height="30" as="geometry">
                        <mxRectangle width="204" height="30" as="alternateBounds"/>
                    </mxGeometry>
                </mxCell>
                <mxCell id="_7Gn3gMYDVEktJhP9fau-63" style="edgeStyle=orthogonalEdgeStyle;html=1;entryX=0;entryY=0.5;entryDx=0;entryDy=0;endArrow=ERmany;endFill=0;" parent="1" source="_7Gn3gMYDVEktJhP9fau-17" target="_7Gn3gMYDVEktJhP9fau-50" edge="1">
                    <mxGeometry relative="1" as="geometry">
                        <Array as="points">
                            <mxPoint x="166" y="625"/>
                            <mxPoint x="343" y="625"/>
                        </Array>
                    </mxGeometry>
                </mxCell>
                <mxCell id="_7Gn3gMYDVEktJhP9fau-65" value="1" style="edgeLabel;html=1;align=center;verticalAlign=middle;resizable=0;points=[];" parent="_7Gn3gMYDVEktJhP9fau-63" vertex="1" connectable="0">
                    <mxGeometry x="-0.896" y="-1" relative="1" as="geometry">
                        <mxPoint as="offset"/>
                    </mxGeometry>
                </mxCell>
                <mxCell id="_7Gn3gMYDVEktJhP9fau-66" value="0 ... *" style="edgeLabel;html=1;align=center;verticalAlign=middle;resizable=0;points=[];" parent="_7Gn3gMYDVEktJhP9fau-63" vertex="1" connectable="0">
                    <mxGeometry x="0.8342" y="-1" relative="1" as="geometry">
                        <mxPoint x="-11" as="offset"/>
                    </mxGeometry>
                </mxCell>
            </root>
        </mxGraphModel>
    </diagram>
</mxfile>